HIERARCHY
ROOT Hips
{
    OFFSET 0.000000 99.379997 0.000000
    CHANNELS 6 Xposition Yposition Zposition Xrotation Yrotation Zrotation
    JOINT RightUpLeg
    {
        OFFSET -10.280000 0.000000 0.000000
        CHANNELS 3 Xrotation Yrotation Zrotation
        JOINT RightLeg
        {
            OFFSET 0.000000 -45.650002 0.000000
            CHANNELS 3 Xrotation Yrotation Zrotation
            JOINT RightFoot
            {
                OFFSET 0.000000 -45.650002 0.000000
                CHANNELS 3 Xrotation Yrotation Zrotation
                JOINT RightToeBase
                {
                    OFFSET 0.000000 -8.080000 14.711000
                    CHANNELS 3 Xrotation Yrotation Zrotation
                    End Site
                    {
                        OFFSET 0.000000 0.000000 6.304715
                    }
                }
            }
        }
    }
    JOINT LeftUpLeg
    {
        OFFSET 10.280000 0.000000 0.000000
        CHANNELS 3 Xrotation Yrotation Zrotation
        JOINT LeftLeg
        {
            OFFSET 0.000000 -45.650002 0.000000
            CHANNELS 3 Xrotation Yrotation Zrotation
            JOINT LeftFoot
            {
                OFFSET 0.000000 -45.650002 0.000000
                CHANNELS 3 Xrotation Yrotation Zrotation
                JOINT LeftToeBase
                {
                    OFFSET 0.000000 -8.080000 14.711000
                    CHANNELS 3 Xrotation Yrotation Zrotation
                    End Site
                    {
                        OFFSET 0.000000 0.000000 6.304715
                    }
                }
            }
        }
    }
    JOINT Spine
    {
        OFFSET 0.000000 8.542999 0.000000
        CHANNELS 3 Xrotation Yrotation Zrotation
        JOINT Spine1
        {
            OFFSET 0.000000 18.916000 0.000000
            CHANNELS 3 Xrotation Yrotation Zrotation
            JOINT Spine2
            {
                OFFSET 0.000000 13.424004 0.000000
                CHANNELS 3 Xrotation Yrotation Zrotation
                JOINT Neck
                {
                    OFFSET 0.000000 20.136993 0.000000
                    CHANNELS 3 Xrotation Yrotation Zrotation
                    JOINT Head
                    {
                        OFFSET 0.000000 10.250000 0.000000
                        CHANNELS 3 Xrotation Yrotation Zrotation
                        End Site
                        {
                            OFFSET 0.000000 17.429993 0.000000
                        }
                    }
                }
                JOINT RightShoulder
                {
                    OFFSET -6.906623 14.035004 0.000000
                    CHANNELS 3 Xrotation Yrotation Zrotation
                    JOINT RightArm
                    {
                        OFFSET -10.308376 0.000000 0.000000
                        CHANNELS 3 Xrotation Yrotation Zrotation
                        JOINT RightForeArm
                        {
                            OFFSET -28.780003 0.000000 0.000000
                            CHANNELS 3 Xrotation Yrotation Zrotation
                            JOINT RightHand
                            {
                                OFFSET -28.260002 0.000000 0.000000
                                CHANNELS 3 Xrotation Yrotation Zrotation
                                JOINT RightHandThumb1
                                {
                                    OFFSET -2.000000 -0.500000 2.600000
                                    CHANNELS 3 Xrotation Yrotation Zrotation
                                    JOINT RightHandThumb2
                                    {
                                        OFFSET -3.499954 -1.034760 1.632056
                                        CHANNELS 3 Xrotation Yrotation Zrotation
                                        JOINT RightHandThumb3
                                        {
                                            OFFSET -2.775887 0.060043 0.090174
                                            CHANNELS 3 Xrotation Yrotation Zrotation
                                            End Site
                                            {
                                                OFFSET -2.618004 0.056625 0.085045
                                            }
                                        }
                                    }
                                }
                                JOINT RightHandIndex1
                                {
                                    OFFSET -9.164001 0.453003 3.233000
                                    CHANNELS 3 Xrotation Yrotation Zrotation
                                    JOINT RightHandIndex2
                                    {
                                        OFFSET -3.930000 0.000000 0.000000
                                        CHANNELS 3 Xrotation Yrotation Zrotation
                                        JOINT RightHandIndex3
                                        {
                                            OFFSET -2.227997 0.000000 0.000000
                                            CHANNELS 3 Xrotation Yrotation Zrotation
                                            End Site
                                            {
                                                OFFSET -1.959999 0.000000 0.000000
                                            }
                                        }
                                    }
                                }
                                JOINT RightHandMiddle1
                                {
                                    OFFSET -9.289993 0.470993 1.163000
                                    CHANNELS 3 Xrotation Yrotation Zrotation
                                    JOINT RightHandMiddle2
                                    {
                                        OFFSET -4.288002 0.000000 0.000000
                                        CHANNELS 3 Xrotation Yrotation Zrotation
                                        JOINT RightHandMiddle3
                                        {
                                            OFFSET -2.688004 0.000000 0.000000
                                            CHANNELS 3 Xrotation Yrotation Zrotation
                                            End Site
                                            {
                                                OFFSET -2.143997 0.000000 0.000000
                                            }
                                        }
                                    }
                                }
                                JOINT RightHandRing1
                                {
                                    OFFSET -8.685997 0.559998 -0.660000
                                    CHANNELS 3 Xrotation Yrotation Zrotation
                                    JOINT RightHandRing2
                                    {
                                        OFFSET -3.737000 0.000000 0.000000
                                        CHANNELS 3 Xrotation Yrotation Zrotation
                                        JOINT RightHandRing3
                                        {
                                            OFFSET -2.593002 0.000000 0.000000
                                            CHANNELS 3 Xrotation Yrotation Zrotation
                                            End Site
                                            {
                                                OFFSET -2.015999 0.000000 0.000000
                                            }
                                        }
                                    }
                                }
                                JOINT RightHandPinky1
                                {
                                    OFFSET -7.928001 0.485992 -2.489000
                                    CHANNELS 3 Xrotation Yrotation Zrotation
                                    JOINT RightHandPinky2
                                    {
                                        OFFSET -2.993004 0.000000 0.000000
                                        CHANNELS 3 Xrotation Yrotation Zrotation
                                        JOINT RightHandPinky3
                                        {
                                            OFFSET -1.890999 0.000000 0.000000
                                            CHANNELS 3 Xrotation Yrotation Zrotation
                                            End Site
                                            {
                                                OFFSET -1.786003 0.000000 0.000000
                                            }
                                        }
                                    }
                                }
                            }
                        }
                    }
                }
                JOINT LeftShoulder
                {
                    OFFSET 6.906623 14.035004 0.000000
                    CHANNELS 3 Xrotation Yrotation Zrotation
                    JOINT LeftArm
                    {
                        OFFSET 10.308376 0.000000 0.000000
                        CHANNELS 3 Xrotation Yrotation Zrotation
                        JOINT LeftForeArm
                        {
                            OFFSET 28.780003 0.000000 0.000000
                            CHANNELS 3 Xrotation Yrotation Zrotation
                            JOINT LeftHand
                            {
                                OFFSET 28.260002 0.000000 0.000000
                                CHANNELS 3 Xrotation Yrotation Zrotation
                                JOINT LeftHandThumb1
                                {
                                    OFFSET 2.000000 -0.500000 2.600000
                                    CHANNELS 3 Xrotation Yrotation Zrotation
                                    JOINT LeftHandThumb2
                                    {
                                        OFFSET 3.527901 -1.034760 1.570724
                                        CHANNELS 3 Xrotation Yrotation Zrotation
                                        JOINT LeftHandThumb3
                                        {
                                            OFFSET 2.777039 0.060043 0.041714
                                            CHANNELS 3 Xrotation Yrotation Zrotation
                                            End Site
                                            {
                                                OFFSET 2.619095 0.056625 0.039341
                                            }
                                        }
                                    }
                                }
                                JOINT LeftHandIndex1
                                {
                                    OFFSET 9.164001 0.453003 3.233000
                                    CHANNELS 3 Xrotation Yrotation Zrotation
                                    JOINT LeftHandIndex2
                                    {
                                        OFFSET 3.930000 0.000000 0.000000
                                        CHANNELS 3 Xrotation Yrotation Zrotation
                                        JOINT LeftHandIndex3
                                        {
                                            OFFSET 2.227997 0.000000 0.000000
                                            CHANNELS 3 Xrotation Yrotation Zrotation
                                            End Site
                                            {
                                                OFFSET 1.959999 0.000000 0.000000
                                            }
                                        }
                                    }
                                }
                                JOINT LeftHandMiddle1
                                {
                                    OFFSET 9.289993 0.470993 1.163000
                                    CHANNELS 3 Xrotation Yrotation Zrotation
                                    JOINT LeftHandMiddle2
                                    {
                                        OFFSET 4.288002 0.000000 0.000000
                                        CHANNELS 3 Xrotation Yrotation Zrotation
                                        JOINT LeftHandMiddle3
                                        {
                                            OFFSET 2.688004 0.000000 0.000000
                                            CHANNELS 3 Xrotation Yrotation Zrotation
                                            End Site
                                            {
                                                OFFSET 2.143997 0.000000 0.000000
                                            }
                                        }
                                    }
                                }
                                JOINT LeftHandRing1
                                {
                                    OFFSET 8.685997 0.559998 -0.660000
                                    CHANNELS 3 Xrotation Yrotation Zrotation
                                    JOINT LeftHandRing2
                                    {
                                        OFFSET 3.737000 0.000000 0.000000
                                        CHANNELS 3 Xrotation Yrotation Zrotation
                                        JOINT LeftHandRing3
                                        {
                                            OFFSET 2.593002 0.000000 0.000000
                                            CHANNELS 3 Xrotation Yrotation Zrotation
                                            End Site
                                            {
                                                OFFSET 2.015999 0.000000 0.000000
                                            }
                                        }
                                    }
                                }
                                JOINT LeftHandPinky1
                                {
                                    OFFSET 7.928001 0.485992 -2.489000
                                    CHANNELS 3 Xrotation Yrotation Zrotation
                                    JOINT LeftHandPinky2
                                    {
                                        OFFSET 2.993004 0.000000 0.000000
                                        CHANNELS 3 Xrotation Yrotation Zrotation
                                        JOINT LeftHandPinky3
                                        {
                                            OFFSET 1.890999 0.000000 0.000000
                                            CHANNELS 3 Xrotation Yrotation Zrotation
                                            End Site
                                            {
                                                OFFSET 1.786003 0.000000 0.000000
                                            }
                                        }
                                    }
                                }
                            }
                        }
                    }
                }
            }
        }
    }
}
MOTION
Frames: 5
Frame Time: 0.011111
0.981432 99.441818 -133.609787 172.010803 148.394104 -174.996597 178.681458 -171.648880 176.001770 20.694801 -6.898113 -1.402834 176.604187 -178.587921 -178.586395 0.000000 0.000000 0.000000 4.771664 1.790254 -0.249911 7.600271 10.842255 -2.472673 177.205734 -172.306992 -179.299240 0.000000 0.000000 0.000000 6.612938 -3.385013 0.594951 6.509852 -3.384703 0.991554 4.920833 -16.068796 0.375991 175.952072 179.999924 179.910370 171.799332 177.093735 179.851685 178.775024 169.863312 -167.592255 0.557087 13.007275 69.000244 1.575434 14.744427 0.767919 12.715803 7.195621 -9.537914 54.372368 -10.916131 -12.678749 110.463905 -144.216660 -146.899139 179.677750 -164.240540 -179.886963 179.999359 165.000183 -138.727509 179.999512 179.999771 -146.231720 179.999802 179.999680 -156.362228 179.998932 -179.999374 -121.720078 179.998917 179.999390 -121.720039 179.999985 179.999161 -141.185547 179.998978 -169.999283 -126.211830 179.998871 179.999603 -126.211609 179.999756 179.999207 -144.176926 179.998642 -159.998947 -130.049362 179.997574 179.999573 -105.073250 179.999863 179.998352 -130.098801 0.140078 -4.614902 -12.896770 175.096588 -163.346344 109.250137 4.953668 -8.564652 3.105658 22.754374 -4.271945 4.871416 42.965584 4.260762 24.798880 105.301666 150.501984 150.557068 179.763916 168.650085 179.914566 0.000011 -15.000030 -43.111935 179.999985 -179.999985 144.726624 0.000001 -0.000011 -24.691359 179.999985 -179.999985 134.435333 180.000000 -179.999985 134.435394 179.999985 -179.999969 149.653946 0.000003 10.000009 -47.437702 179.999954 -179.999985 132.562302 0.000007 -0.000030 -31.593500 0.000006 20.000021 -51.545780 179.999939 -179.999985 102.681351 179.999985 -179.999954 128.505768
0.998750 99.472740 -133.591095 171.889648 148.352295 -175.003677 178.908020 -171.393967 176.334885 20.642157 -6.877350 -1.974845 176.562729 -178.332718 -178.305313 0.000000 0.000000 0.000000 4.900384 1.682184 -0.201780 7.676589 10.743090 -2.411386 177.213089 -172.488037 -179.281860 0.000000 0.000000 0.000000 6.597431 -3.391417 0.596390 6.494761 -3.391107 0.993981 4.911725 -16.098524 0.379542 175.970337 179.999969 179.952545 171.832657 177.176468 179.921555 178.833511 169.856339 -167.500000 0.586601 13.048439 68.864433 1.664880 14.220047 0.770234 12.767156 7.130768 -9.141080 53.771957 -11.059030 -12.741392 110.447403 -144.237839 -146.909119 179.677917 -164.257217 -179.887115 179.999527 165.000153 -138.948807 179.999603 179.999847 -146.412735 179.999847 179.999756 -156.488937 179.998566 -179.999207 -122.013336 179.998566 179.999207 -122.013336 179.999954 179.998917 -141.380875 179.998566 -169.999039 -126.456734 179.998352 179.999420 -126.456474 179.999664 179.998917 -144.340012 179.998596 -159.998993 -130.447769 179.997589 179.999466 -105.670845 179.999908 179.998337 -130.496826 0.123607 -4.572636 -12.927377 175.078690 -163.457245 109.346687 5.061729 -8.588020 3.048902 22.718750 -4.319942 4.876783 42.862495 4.314735 24.858797 105.287659 150.524765 150.564255 179.764267 168.667282 179.914673 180.000000 -165.000015 136.889053 179.999985 179.999985 144.727417 0.000002 -0.000007 -24.690802 179.999969 179.999924 134.404114 179.999924 179.999985 134.404129 179.999969 -179.999969 149.633148 179.999939 169.999908 132.531204 179.999893 179.999985 132.531204 179.999969 -179.999954 148.385788 179.999969 159.999908 128.430649 179.999847 179.999985 102.645950 179.999985 -179.999908 128.482178
1.014999 99.519333 -133.585785 171.821213 148.328400 -175.066406 179.089584 -171.310638 176.537460 20.429329 -7.044492 -2.253070 176.561569 -178.255783 -178.133118 0.000000 0.000000 0.000000 4.990786 1.591165 -0.139154 7.740161 10.781446 -2.348126 177.227081 -172.549454 -179.256714 0.000000 0.000000 0.000000 6.592804 -3.388780 0.608830 6.490697 -3.388435 1.014719 4.920095 -16.089800 0.409104 175.975204 179.999985 179.982452 171.840118 177.274780 179.971039 178.849380 169.858139 -167.425568 0.595493 13.103539 68.740334 1.795858 13.627559 0.752290 12.779389 7.115976 -8.847554 53.696590 -11.326735 -12.995286 110.373108 -144.334900 -146.953583 179.679459 -164.333328 -179.887436 179.999603 165.000137 -139.141617 179.999710 179.999878 -146.570480 179.999878 179.999817 -156.599335 179.999054 -179.999542 -122.618782 179.999115 179.999466 -122.618767 179.999985 179.999313 -141.784134 179.998810 -169.999344 -127.026482 179.998734 179.999466 -127.026291 179.999786 179.999115 -144.719482 179.998611 -159.999207 -130.933975 179.997803 179.999329 -106.400238 0.000001 0.001534 49.017418 0.073505 -4.540230 -12.953606 175.006134 -163.547958 109.418648 5.109313 -8.624963 2.987646 22.683149 -4.382614 4.904685 42.775417 4.367764 24.887127 105.282433 150.533218 150.566910 179.764404 168.673721 179.914703 179.999969 -165.000015 136.874359 179.999985 179.999985 144.715424 179.999985 -179.999985 155.300781 179.999924 179.999908 134.348953 179.999878 179.999985 134.348953 179.999954 -179.999954 149.596420 179.999939 169.999878 132.468521 179.999847 179.999985 132.468521 179.999939 -179.999924 148.344025 179.999939 159.999893 128.382370 179.999847 179.999985 102.573509 179.999985 -179.999878 128.433975
1.038136 99.570351 -133.587677 171.753494 148.323608 -175.157776 179.333466 -171.689774 176.650650 20.056248 -7.542745 -2.122409 176.593857 -178.389008 -178.043457 0.000000 0.000000 0.000000 5.090935 1.629172 -0.055099 7.786061 10.689240 -2.255485 177.235184 -172.646347 -179.238770 0.000000 0.000000 0.000000 6.598749 -3.378991 0.630453 6.497328 -3.378615 1.050761 4.943988 -16.051281 0.459971 175.973770 179.999985 -179.995621 171.835480 177.391327 -179.992661 178.828293 169.859375 -167.377884 0.599387 13.085205 68.664200 2.040387 12.994696 0.688485 12.727437 7.102888 -8.646258 53.660362 -11.644376 -13.288136 110.288597 -144.445984 -147.004074 179.681290 -164.420334 -179.887833 179.999771 165.000076 -139.313095 179.999832 179.999908 -146.710800 179.999924 179.999878 -156.697525 179.998932 -179.999573 -122.981873 179.999069 179.999313 -122.981888 0.000026 0.000814 37.974056 179.999115 -169.999603 -127.556923 179.999146 179.999527 -127.556778 179.999908 179.999344 -145.072800 179.999207 -159.999634 -131.547989 179.998810 179.999481 -107.321541 0.000078 0.000866 48.403824 0.018626 -4.515767 -12.967203 174.883865 -163.630829 109.428032 5.116414 -8.671280 2.943011 22.637869 -4.448135 4.950431 42.711239 4.414724 24.896088 105.282326 150.533401 150.566925 179.764420 168.673828 179.914703 179.999969 -165.000031 136.835114 179.999985 179.999985 144.683289 180.000000 -179.999985 155.278305 179.999939 179.999908 134.263153 179.999878 179.999985 134.263153 179.999939 -179.999954 149.539276 179.999939 169.999878 132.381516 179.999863 179.999985 132.381531 179.999939 -179.999954 148.286072 179.999969 159.999893 128.310059 179.999847 179.999985 102.465118 179.999969 -179.999878 128.361740
1.074502 99.621574 -133.588364 171.657059 148.330154 -175.244278 179.692093 -172.349182 176.613251 19.604879 -8.081336 -1.599147 176.699097 -178.316238 -178.068817 0.000000 0.000000 0.000000 5.218001 1.725774 0.039484 7.812498 10.621889 -2.162710 177.239578 -172.667953 -179.223160 0.000000 0.000000 0.000000 6.607533 -3.366814 0.655471 6.506855 -3.366404 1.092457 4.972766 -16.002752 0.518764 175.980270 179.999985 -179.981339 171.847595 177.511063 -179.969070 178.795303 169.855225 -167.363998 0.686428 13.204590 68.619949 2.201149 12.375361 0.587114 12.546527 7.062896 -8.541580 53.583958 -11.813465 -13.434134 110.247063 -144.500793 -147.028900 179.682190 -164.463165 -179.888092 179.999786 165.000061 -139.431778 179.999832 179.999908 -146.807861 179.999939 179.999893 -156.765518 179.999207 -179.999725 -123.571671 179.999344 179.999481 -123.571632 0.000043 0.000556 37.581284 179.999207 -169.999710 -128.008408 179.999283 179.999542 -128.008255 179.999939 179.999420 -145.373520 179.999161 -159.999680 -131.929062 179.998856 179.999435 -107.893173 0.000126 0.000847 48.023148 179.995117 -175.503220 167.037537 174.738144 -163.715332 109.349365 5.088950 -8.722456 2.932130 22.597982 -4.504537 5.006553 42.652092 4.459215 24.896540 105.284477 150.529877 150.565857 179.764343 168.671173 179.914688 180.000000 -165.000046 136.787125 179.999985 -179.999985 144.643997 179.999985 -179.999985 155.250793 179.999939 179.999893 134.165649 179.999878 179.999985 134.165619 179.999939 -179.999954 149.474319 179.999939 169.999878 132.279160 179.999847 179.999985 132.279160 179.999939 -179.999954 148.217926 179.999939 159.999893 128.225876 179.999817 179.999985 102.338737 179.999954 -179.999878 128.277618
